<svg xmlns="http://www.w3.org/2000/svg" width="16" height="15" fill="none"><path fill="#fff" d="M6.296 11.099c0 .886-.303 1.628-.909 2.226-.605.598-1.363.897-2.271.897-.866 0-1.601-.343-2.207-1.03C.303 12.505 0 11.642 0 10.6c0-.753.162-1.584.487-2.492.346-.908.79-1.828 1.33-2.758.563-.93 1.19-1.85 1.883-2.758A44.5 44.5 0 0 1 5.842 0l.876.731a22.112 22.112 0 0 0-2.434 3.556c-.65 1.196-1.039 2.37-1.168 3.522a3.548 3.548 0 0 1 2.239.997c.627.598.941 1.362.941 2.293Zm9.315 0c0 .886-.303 1.628-.91 2.226-.605.598-1.362.897-2.271.897-.865 0-1.601-.343-2.207-1.03-.606-.687-.909-1.55-.909-2.592 0-.753.163-1.584.487-2.492.346-.908.79-1.828 1.33-2.758.563-.93 1.19-1.85 1.883-2.758A44.5 44.5 0 0 1 15.156 0L16 .731a22.116 22.116 0 0 0-2.434 3.556c-.628 1.196-1.006 2.37-1.136 3.522a3.548 3.548 0 0 1 2.24.997c.627.598.94 1.362.94 2.293Z"/></svg>