<svg xmlns="http://www.w3.org/2000/svg" width="32" height="32" fill="none"><path fill="#FF5E15" d="M14.477 6.283c.48-1.474 2.565-1.474 3.044 0l1.711 5.267a1.6 1.6 0 0 0 1.522 1.106h5.538c1.55 0 2.194 1.983.94 2.894l-4.48 3.255a1.6 1.6 0 0 0-.581 1.79l1.711 5.266c.479 1.474-1.208 2.7-2.462 1.789l-4.48-3.255a1.6 1.6 0 0 0-1.881 0l-4.48 3.255c-1.254.91-2.942-.315-2.463-1.789l1.712-5.267a1.6 1.6 0 0 0-.582-1.789l-4.48-3.255c-1.254-.91-.61-2.894.94-2.894h5.538a1.6 1.6 0 0 0 1.522-1.106l1.711-5.267Z"/></svg>